<?xml version="1.0" encoding="UTF-8"?>
<svg version="1.1" xmlns="http://www.w3.org/2000/svg" width="500" height="500">
<path d="M0 0 C165 0 330 0 500 0 C500 165 500 330 500 500 C335 500 170 500 0 500 C0 335 0 170 0 0 Z " fill="#E0E0E0" transform="translate(0,0)"/>
<path d="M0 0 C0 0.66 0 1.32 0 2 C-1.21623047 2.20302734 -1.21623047 2.20302734 -2.45703125 2.41015625 C-15.98894515 5.04092414 -26.67407241 12.17906989 -35 23.125 C-35.46293457 23.7240918 -35.92586914 24.32318359 -36.40283203 24.94042969 C-45.54904906 36.8477119 -54.32802639 49.03570002 -63.09838867 61.22070312 C-67.08943495 66.75934741 -71.12991301 72.25996768 -75.1875 77.75 C-79.41895774 83.48328272 -83.64462358 89.22025882 -87.8125 95 C-88.43451294 95.85416504 -88.43451294 95.85416504 -89.0690918 96.72558594 C-90.81194565 99.15608369 -92.04640837 101.13922512 -93 104 C-98.70351446 105.15556987 -104.41539939 106.08751447 -110 104 C-114.91377484 99.72039037 -117.6504532 93.38962801 -120.58056641 87.68115234 C-122.81262323 83.46504501 -125.40838727 79.5012555 -128 75.5 C-128.99166515 73.93621406 -129.98123946 72.37110033 -130.96875 70.8046875 C-131.46246094 70.02319336 -131.95617187 69.24169922 -132.46484375 68.43652344 C-134.07549806 65.88017325 -135.67895124 63.31940716 -137.28125 60.7578125 C-137.82007813 59.89865234 -138.35890625 59.03949219 -138.9140625 58.15429688 C-139.94261117 56.51393908 -140.96879958 54.87209806 -141.9921875 53.22851562 C-147.75871273 44.04508525 -153.40870167 38.20878121 -164.33984375 35.3984375 C-166.38290376 35.07458824 -166.38290376 35.07458824 -169 35 C-169 34.34 -169 33.68 -169 33 C-152.17 33 -135.34 33 -118 33 C-118 33.66 -118 34.32 -118 35 C-119.093125 35.268125 -120.18625 35.53625 -121.3125 35.8125 C-125.47782025 36.94921874 -125.47782025 36.94921874 -128 40 C-128.66394883 46.80000344 -127.27984411 50.15781645 -123.375 55.625 C-122.37223588 57.10056999 -121.371015 58.57718956 -120.37109375 60.0546875 C-119.83081543 60.84198242 -119.29053711 61.62927734 -118.73388672 62.44042969 C-115.54302031 67.15079908 -112.49589867 71.95302604 -109.4375 76.75 C-108.83019043 77.69053223 -108.22288086 78.63106445 -107.59716797 79.60009766 C-107.02756348 80.49003418 -106.45795898 81.3799707 -105.87109375 82.296875 C-105.36505615 83.08416992 -104.85901855 83.87146484 -104.33764648 84.68261719 C-102.96636669 87.05826746 -101.95518186 89.43200735 -101 92 C-96.78722762 88.21877992 -93.81270762 83.63276041 -90.625 79 C-89.36988911 77.19133863 -88.11467795 75.38274683 -86.859375 73.57421875 C-86.21935547 72.64915527 -85.57933594 71.7240918 -84.91992188 70.77099609 C-81.33918739 65.60297265 -77.72901278 60.45553114 -74.1184082 55.30834961 C-71.34576924 51.35505288 -68.5808259 47.39720104 -65.83984375 43.421875 C-54.96550611 27.71353273 -43.45213907 11.83939511 -26 3 C-25.3296875 2.6596875 -24.659375 2.319375 -23.96875 1.96875 C-16.44243712 -1.15756458 -7.9861241 -0.24756068 0 0 Z " fill="#FE9250" transform="translate(306,134)"/>
<path d="M0 0 C22.25031087 -1.8534797 22.25031087 -1.8534797 30.0625 4.3125 C31.5718761 5.68443496 33.03229289 7.08704048 34.47119141 8.53271484 C37.19527016 11.14716922 40.24721894 13.3439414 43.25 15.625 C56.27643259 25.86539142 69.56711935 37.53191693 72 55 C73.13592475 70.90832154 71.97522915 83.22753174 61.21875 95.75 C52.60492718 104.48514427 40.40529441 110.66808577 28 111 C26.81664062 111.061875 25.63328125 111.12375 24.4140625 111.1875 C11.05815687 111.69476835 0.08953328 108.6960149 -11 101 C-12.0725 100.2575 -13.145 99.515 -14.25 98.75 C-23.03110901 89.96889099 -27.04564828 78.59399984 -27.3125 66.375 C-27.19203393 54.91867705 -23.21878263 44.92717202 -16 36 C-14.515 35.505 -14.515 35.505 -13 35 C-13.60355408 38.85025879 -14.76772603 41.86101159 -16.5625 45.3125 C-17.01753906 46.19550781 -17.47257813 47.07851563 -17.94140625 47.98828125 C-18.29074219 48.65214844 -18.64007813 49.31601562 -19 50 C-19.99 50 -20.98 50 -22 50 C-22 50.66 -22 51.32 -22 52 C-21.34 52 -20.68 52 -20 52 C-20.16113281 52.85851562 -20.32226562 53.71703125 -20.48828125 54.6015625 C-22.40767104 67.34865501 -20.78374073 78.95033487 -13.1953125 89.51171875 C-10.88926049 92.12551791 -8.69830494 93.78020348 -5.75 95.625 C-4.85796875 96.19476563 -3.9659375 96.76453125 -3.046875 97.3515625 C3.56175628 100.92700148 9.22352109 102.54014491 16.75 102.4375 C17.5349585 102.42992676 18.31991699 102.42235352 19.12866211 102.41455078 C30.37141928 102.09895653 40.76144511 98.35020687 48.74609375 90.22265625 C55.40020113 82.10829588 57.79359758 72.93865132 57.44140625 62.5546875 C55.36491344 45.8324888 44.61979945 35.99185651 32.0859375 26.16015625 C30.7253435 25.1049823 29.36343684 24.05149801 28 23 C27.42024414 22.55124512 26.84048828 22.10249023 26.24316406 21.64013672 C23.6113686 19.60562262 20.97168474 17.58170141 18.328125 15.5625 C14.41518689 12.56210301 10.54697939 9.50622568 6.6875 6.4375 C5.68964478 5.6494397 5.68964478 5.6494397 4.67163086 4.84545898 C3.09519847 3.58735469 1.54470197 2.29686597 0 1 C0 0.67 0 0.34 0 0 Z " fill="#463D3D" transform="translate(248,263)"/>
<path d="M0 0 C2.13331139 0.22288328 4.26457761 0.49183974 6.375 0.875 C2.6378908 8.04289798 -1.7713588 14.59625534 -6.4375 21.1875 C-7.87332455 23.23111864 -9.30823155 25.27538228 -10.7421875 27.3203125 C-11.41991211 28.28614258 -12.09763672 29.25197266 -12.79589844 30.24707031 C-14.93571275 33.32141111 -17.00981182 36.42944962 -19.0625 39.5625 C-31.27311177 58.01230594 -47.16115647 79.93815945 -70.33984375 84.67578125 C-76.08337233 85.17649913 -81.86733059 85.00994538 -87.625 84.875 C-87.625 83.885 -87.625 82.895 -87.625 81.875 C-86.75101562 81.76285156 -86.75101562 81.76285156 -85.859375 81.6484375 C-73.4733361 79.6619973 -64.31811278 73.69112853 -55.625 64.875 C-54.33335937 63.58142578 -54.33335937 63.58142578 -53.015625 62.26171875 C-44.93625708 53.82041382 -38.30470223 44.43696146 -31.625 34.875 C-30.42984869 33.17176188 -29.23453396 31.46863843 -28.0390625 29.765625 C-27.44391846 28.91516602 -26.84877441 28.06470703 -26.2355957 27.18847656 C-25.04362595 25.48913068 -23.84689365 23.79311474 -22.64526367 22.10058594 C-19.95947224 18.30279971 -17.3664267 14.51301768 -15.01171875 10.5 C-10.978665 3.82948037 -8.50872392 0.05115465 0 0 Z " fill="#FE9250" transform="translate(186.625,262.125)"/>
<path d="M0 0 C5.67894124 -1.0785328 11.43828832 -2.02048043 17 0 C21.61384297 4.0333194 24.04509993 10.04744784 26.6953125 15.45898438 C28.7995466 19.55720079 31.33053477 23.35279279 33.875 27.1875 C34.31569824 27.86868896 34.75639648 28.54987793 35.21044922 29.25170898 C36.45844329 31.17837411 37.7247722 33.09127355 39 35 C39.41773682 35.63526611 39.83547363 36.27053223 40.26586914 36.92504883 C45.04821944 43.96205469 51.25842685 47.67795041 59.625 49.375 C61.08032946 49.60337478 62.53795129 49.81957697 64 50 C64 50.66 64 51.32 64 52 C47.17 52 30.34 52 13 52 C13 51.34 13 50.68 13 50 C13.99 50 14.98 50 16 50 C16.268125 49.13375 16.53625 48.2675 16.8125 47.375 C18 44 18 44 19.6875 40.9375 C21.22287336 37.50118819 21.03095162 36.53525431 20 33 C18.71023031 30.49803396 18.71023031 30.49803396 17.05078125 28.015625 C16.44943359 27.07976562 15.84808594 26.14390625 15.22851562 25.1796875 C14.59623047 24.21289062 13.96394531 23.24609375 13.3125 22.25 C12.69955078 21.29867188 12.08660156 20.34734375 11.45507812 19.3671875 C8.06282972 14.115138 4.60916179 8.91281913 1.05541992 3.76855469 C0 2 0 2 0 0 Z " fill="#FE924F" transform="translate(213,263)"/>
<path d="M0 0 C1.24583862 -0.0009668 1.24583862 -0.0009668 2.5168457 -0.00195312 C10.89975535 0.06793755 19.00955869 1.05205503 27.3125 2.1875 C27.3125 10.7675 27.3125 19.3475 27.3125 28.1875 C26.6525 28.1875 25.9925 28.1875 25.3125 28.1875 C25.065 26.99125 24.8175 25.795 24.5625 24.5625 C22.97278762 18.27035168 19.78842285 13.71642806 14.3125 10.1875 C7.1132703 6.79877167 -0.72982958 5.5801861 -8.3984375 8.06640625 C-14.92693231 11.03657731 -19.70701701 15.01186629 -22.8046875 21.54296875 C-23.76464303 24.41858774 -24.09421188 26.98034762 -24.3125 30 C-24.43625 31.711875 -24.56 33.42375 -24.6875 35.1875 C-28.6475 35.1875 -32.6075 35.1875 -36.6875 35.1875 C-35.39044956 22.99522585 -32.46636398 14.52943166 -22.7734375 6.65625 C-15.38010951 1.450461 -8.98016654 -0.00718629 0 0 Z " fill="#473E3E" transform="translate(273.6875,202.8125)"/>
<path d="M0 0 C2.31 0.33 4.62 0.66 7 1 C6.67 3.64 6.34 6.28 6 9 C6.99 9 7.98 9 9 9 C9 9.66 9 10.32 9 11 C6.13275314 10.42655063 5.1385485 10.1385485 3 8 C2.67 8.99 2.34 9.98 2 11 C1.34 11 0.68 11 0 11 C0 7.37 0 3.74 0 0 Z " fill="#303030" transform="translate(254,245)"/>
<path d="M0 0 C0.66 0 1.32 0 2 0 C1.39644592 3.85025879 0.23227397 6.86101159 -1.5625 10.3125 C-2.01753906 11.19550781 -2.47257813 12.07851563 -2.94140625 12.98828125 C-3.29074219 13.65214844 -3.64007813 14.31601562 -4 15 C-4.99 15 -5.98 15 -7 15 C-7.33 15.66 -7.66 16.32 -8 17 C-9 14 -9 14 -7.890625 11.66015625 C-7.34921875 10.80292969 -6.8078125 9.94570313 -6.25 9.0625 C-5.71890625 8.20785156 -5.1878125 7.35320312 -4.640625 6.47265625 C-1.61394558 1.91101798 -1.61394558 1.91101798 0 0 Z " fill="#524846" transform="translate(233,298)"/>
<path d="M0 0 C0.99 0.33 1.98 0.66 3 1 C4.1875 3.5625 4.1875 3.5625 5 6 C5.61875 5.01 6.2375 4.02 6.875 3 C7.57625 2.01 8.2775 1.02 9 0 C9.66 0 10.32 0 11 0 C11 3.3 11 6.6 11 10 C10.34 10 9.68 10 9 10 C8.67 9.01 8.34 8.02 8 7 C7.01 8.485 7.01 8.485 6 10 C5.34 10 4.68 10 4 10 C3.34 8.35 2.68 6.7 2 5 C1.67 6.65 1.34 8.3 1 10 C0.67 10 0.34 10 0 10 C0 6.7 0 3.4 0 0 Z " fill="#171717" transform="translate(316,246)"/>
<path d="M0 0 C4 2 4 2 6 5 C6.33 3.35 6.66 1.7 7 0 C7.66 0 8.32 0 9 0 C9 3.3 9 6.6 9 10 C5 8 5 8 3 5 C2.67 6.65 2.34 8.3 2 10 C1.34 10 0.68 10 0 10 C0 6.7 0 3.4 0 0 Z " fill="#1B1B1B" transform="translate(193,246)"/>
<path d="M0 0 C0.99 0 1.98 0 3 0 C3.99 3.3 4.98 6.6 6 10 C5.34 10 4.68 10 4 10 C4 9.34 4 8.68 4 8 C1.36 8.66 -1.28 9.32 -4 10 C-2.68 6.7 -1.36 3.4 0 0 Z " fill="#373737" transform="translate(297,246)"/>
<path d="M0 0 C0.66 0.33 1.32 0.66 2 1 C1.63243243 8.35135135 1.63243243 8.35135135 -1.4375 11.5 C-4 13 -4 13 -6 13 C-4.58707905 8.1725201 -2.57025846 4.2837641 0 0 Z " fill="#DCD6D2" transform="translate(235,300)"/>
<path d="M0 0 C0.66 0 1.32 0 2 0 C1.62875 1.0725 1.2575 2.145 0.875 3.25 C-0.31491732 6.81629347 -0.31491732 6.81629347 0.875 9.4375 C1.431875 10.2109375 1.431875 10.2109375 2 11 C-0.475 10.01 -0.475 10.01 -3 9 C-3.33 9.66 -3.66 10.32 -4 11 C-4.66 11 -5.32 11 -6 11 C-5.814375 9.906875 -5.62875 8.81375 -5.4375 7.6875 C-4.7421932 4.06375867 -4.7421932 4.06375867 -6 1 C-3.525 1.99 -3.525 1.99 -1 3 C-0.67 2.01 -0.34 1.02 0 0 Z " fill="#2A2A2A" transform="translate(159,245)"/>
<path d="M0 0 C1.98 0 3.96 0 6 0 C4.68 0.33 3.36 0.66 2 1 C2 1.99 2 2.98 2 4 C3.32 4 4.64 4 6 4 C6 4.66 6 5.32 6 6 C4.68 6 3.36 6 2 6 C2 6.66 2 7.32 2 8 C3.65 8 5.3 8 7 8 C7 8.66 7 9.32 7 10 C4.69 10 2.38 10 0 10 C0 6.7 0 3.4 0 0 Z " fill="#212121" transform="translate(275,246)"/>
<path d="M0 0 C1.2065625 0.0309375 1.2065625 0.0309375 2.4375 0.0625 C2.7675 0.7225 3.0975 1.3825 3.4375 2.0625 C1.7875 1.7325 0.1375 1.4025 -1.5625 1.0625 C-1.5625 2.0525 -1.5625 3.0425 -1.5625 4.0625 C0.0875 4.3925 1.7375 4.7225 3.4375 5.0625 C3.1075 6.7125 2.7775 8.3625 2.4375 10.0625 C0.7875 10.0625 -0.8625 10.0625 -2.5625 10.0625 C-2.5625 9.0725 -2.5625 8.0825 -2.5625 7.0625 C-0.5825 7.5575 -0.5825 7.5575 1.4375 8.0625 C1.4375 7.4025 1.4375 6.7425 1.4375 6.0625 C0.1175 5.7325 -1.2025 5.4025 -2.5625 5.0625 C-3.125 3.125 -3.125 3.125 -3.5625 1.0625 C-2.5625 0.0625 -2.5625 0.0625 0 0 Z " fill="#1A1A1A" transform="translate(218.5625,245.9375)"/>
<path d="M0 0 C1.98 0 3.96 0 6 0 C6 0.33 6 0.66 6 1 C4.35 1 2.7 1 1 1 C1 1.99 1 2.98 1 4 C2.65 4 4.3 4 6 4 C6 4.66 6 5.32 6 6 C4.68 6 3.36 6 2 6 C2 6.66 2 7.32 2 8 C3.32 8 4.64 8 6 8 C6 8.66 6 9.32 6 10 C4.02 10 2.04 10 0 10 C0 6.7 0 3.4 0 0 Z " fill="#1E1E1E" transform="translate(174,246)"/>
<path d="M0 0 C1.9375 0.3125 1.9375 0.3125 4 1 C5 4 5 4 4 7 C4.99 7 5.98 7 7 7 C7 7.66 7 8.32 7 9 C3.76939581 8.44299928 1.9341777 7.70784878 0 5 C-0.1875 2.3125 -0.1875 2.3125 0 0 Z " fill="#585858" transform="translate(256,247)"/>
</svg>
